<?xml version="1.0" standalone="no"?>
<!DOCTYPE svg PUBLIC "-//W3C//DTD SVG 20010904//EN"
 "http://www.w3.org/TR/2001/REC-SVG-20010904/DTD/svg10.dtd">
<svg version="1.0" xmlns="http://www.w3.org/2000/svg"
 width="677.000000pt" height="389.000000pt" viewBox="0 0 677.000000 389.000000"
 preserveAspectRatio="xMidYMid meet">

<g transform="translate(0.000000,389.000000) scale(0.100000,-0.100000)"
fill="#000000" stroke="none">
<path d="M1548 3583 c-32 -20 -48 -53 -48 -96 0 -31 47 -120 194 -371 30 -50
62 -107 73 -126 11 -19 64 -111 117 -203 54 -93 96 -170 94 -171 -1 -2 -32
-20 -68 -41 -36 -20 -113 -70 -172 -111 -662 -453 -1098 -1171 -1203 -1977 -8
-65 -15 -122 -15 -128 0 -5 1070 -9 2880 -9 1810 0 2880 4 2880 9 0 47 -37
275 -65 397 -173 771 -668 1447 -1340 1829 -27 15 -51 29 -53 30 -1 1 17 36
41 76 43 72 298 514 343 594 12 22 38 66 57 98 20 33 39 72 42 87 13 60 -45
130 -107 130 -29 0 -87 -35 -96 -58 -4 -10 -112 -200 -241 -423 l-235 -405
-86 37 c-235 101 -546 179 -838 210 -151 16 -604 6 -735 -15 -254 -42 -463
-98 -675 -183 -62 -25 -116 -43 -119 -40 -4 5 -109 185 -379 653 -58 100 -114
190 -124 199 -27 25 -90 29 -122 8z m603 -1954 c133 -40 197 -210 126 -332
-32 -55 -87 -93 -155 -108 -70 -17 -150 8 -205 64 -168 168 5 444 234 376z
m2650 -4 c153 -54 198 -256 82 -372 -79 -80 -193 -91 -292 -28 -122 76 -130
271 -16 362 63 51 148 65 226 38z"/>
</g>
</svg>
