<?xml version="1.0" standalone="no"?>
<!DOCTYPE svg PUBLIC "-//W3C//DTD SVG 20010904//EN"
 "http://www.w3.org/TR/2001/REC-SVG-20010904/DTD/svg10.dtd">
<svg version="1.0" xmlns="http://www.w3.org/2000/svg"
 width="1900.000000pt" height="2052.000000pt" viewBox="0 0 1900.000000 2052.000000"
 preserveAspectRatio="xMidYMid meet">

<g transform="translate(0.000000,2052.000000) scale(0.100000,-0.100000)"
fill="#000000" stroke="none">
<path d="M9020 20504 c-787 -52 -1379 -147 -2030 -325 -2324 -636 -4325 -2139
-5592 -4199 -715 -1164 -1167 -2458 -1332 -3815 -54 -448 -61 -571 -61 -1150
0 -579 7 -719 60 -1155 243 -1994 1101 -3839 2473 -5316 203 -218 527 -532
735 -711 l38 -33 -571 -987 -570 -988 0 -785 c0 -432 3 -802 6 -823 11 -61 63
-138 118 -172 45 -27 57 -30 135 -30 l86 0 690 398 c380 220 697 406 706 415
9 10 220 370 469 802 248 432 467 810 485 840 18 30 47 83 64 118 17 34 33 62
35 62 2 0 113 -55 247 -123 1187 -597 2408 -924 3759 -1007 214 -13 842 -13
1063 0 1334 79 2576 412 3756 1007 134 67 247 120 252 117 5 -3 9 -10 9 -15 0
-14 1019 -1780 1039 -1800 16 -16 1280 -749 1372 -796 99 -49 239 -20 309 65
61 74 60 58 60 932 l0 797 -551 954 c-303 525 -559 968 -570 985 l-19 32 132
118 c185 164 658 640 811 815 820 942 1418 1959 1828 3106 292 819 476 1741
529 2647 13 227 13 829 0 1051 -63 1070 -286 2070 -678 3040 -866 2146 -2522
3931 -4597 4955 -980 483 -1985 783 -3065 915 -402 48 -556 57 -1080 60 -272
1 -520 1 -550 -1z m1480 -4244 l0 -750 644 0 c710 0 752 -3 892 -61 235 -98
405 -311 449 -564 13 -77 15 -326 15 -1979 l0 -1891 -312 -312 -311 -312 129
-224 c71 -123 404 -700 739 -1281 l610 -1057 33 38 c64 73 203 263 296 405
407 622 667 1316 771 2058 22 162 45 445 45 573 l0 107 1000 0 c946 0 1000 -1
1000 -17 0 -115 -25 -541 -41 -693 -99 -981 -403 -1925 -892 -2775 -294 -510
-637 -964 -1063 -1405 l-101 -105 638 -1105 c351 -608 639 -1108 639 -1111 0
-5 -1095 -766 -1571 -1091 l-65 -45 -624 1081 c-343 595 -625 1083 -627 1086
-2 2 -47 -19 -101 -47 -411 -217 -951 -421 -1447 -548 -1634 -418 -3361 -237
-4849 507 -98 49 -179 88 -181 86 -1 -2 -282 -489 -625 -1083 -342 -594 -624
-1082 -626 -1083 -1 -2 -372 253 -824 568 l-820 572 23 42 c12 22 868 1505
1901 3294 l1879 3254 -311 311 -312 312 0 1882 c0 1279 3 1906 11 1958 42 307
253 545 559 631 59 16 123 18 748 22 l682 3 0 750 0 749 1000 0 1000 0 0 -750z"/>
<path d="M9335 13754 c-215 -34 -436 -127 -599 -253 -58 -45 -179 -166 -226
-226 -99 -126 -185 -304 -226 -469 -35 -140 -44 -352 -19 -496 74 -446 378
-815 800 -973 156 -59 235 -72 435 -72 168 0 195 3 291 27 462 117 810 465
927 927 24 96 27 123 27 291 0 200 -13 279 -72 435 -145 387 -473 680 -877
781 -84 22 -129 26 -266 29 -91 2 -178 1 -195 -1z"/>
<path d="M7905 7753 c-373 -648 -680 -1182 -683 -1186 -5 -11 258 -135 448
-210 871 -344 1822 -434 2758 -261 340 62 720 178 1033 313 200 86 309 140
315 156 4 9 -261 478 -671 1187 -372 645 -679 1175 -681 1177 -2 3 -109 -99
-237 -226 -252 -250 -304 -289 -452 -339 -106 -36 -285 -45 -398 -20 -80 18
-189 66 -265 117 -26 18 -146 130 -267 251 l-221 218 -679 -1177z"/>
</g>
</svg>
