<?xml version="1.0" standalone="no"?>
<!DOCTYPE svg PUBLIC "-//W3C//DTD SVG 20010904//EN"
 "http://www.w3.org/TR/2001/REC-SVG-20010904/DTD/svg10.dtd">
<svg version="1.0" xmlns="http://www.w3.org/2000/svg"
 width="10417.000000pt" height="10417.000000pt" viewBox="0 0 10417.000000 10417.000000"
 preserveAspectRatio="xMidYMid meet">

<g transform="translate(0.000000,10417.000000) scale(0.100000,-0.100000)"
fill="#000000" stroke="none">
<path d="M12855 104163 c-27 -1 -135 -7 -240 -13 -1419 -79 -2879 -408 -4226
-953 -2042 -826 -3845 -2141 -5273 -3847 -1196 -1429 -2091 -3112 -2601 -4894
-271 -947 -427 -1857 -497 -2901 -19 -281 -19 -78659 0 -78940 102 -1515 406
-2862 947 -4205 942 -2337 2527 -4366 4575 -5857 1506 -1095 3256 -1876 5070
-2261 662 -141 1276 -225 2005 -274 281 -19 78659 -19 78940 0 566 38 1072 99
1570 188 3388 607 6434 2514 8470 5304 1202 1648 2012 3539 2369 5535 89 498
150 1004 188 1570 19 281 19 78659 0 78940 -38 566 -99 1072 -188 1570 -607
3388 -2514 6434 -5304 8470 -1770 1291 -3822 2130 -5970 2439 -352 51 -572 74
-1105 118 -118 10 -8489 12 -39415 13 -21596 1 -39287 0 -39315 -2z m47190
-20553 c2499 -57 4687 -283 6775 -700 2252 -450 4145 -1131 5809 -2090 537
-309 1121 -698 1566 -1044 1111 -863 2070 -1932 2829 -3155 842 -1358 1398
-2785 1740 -4466 199 -982 312 -1952 368 -3180 16 -360 16 -1556 0 -1875 -105
-2023 -456 -3654 -1115 -5185 -849 -1971 -2290 -3731 -4247 -5187 -863 -642
-1702 -1156 -2774 -1699 l-410 -207 45 -12 c119 -32 564 -171 814 -254 1561
-521 2938 -1181 4150 -1989 1795 -1198 3179 -2668 4267 -4532 1311 -2246 2053
-4794 2243 -7695 35 -545 40 -726 40 -1505 0 -779 -5 -961 -40 -1505 -172
-2624 -802 -4924 -1900 -6930 -933 -1704 -2102 -3182 -3490 -4411 -1452 -1286
-3379 -2467 -5405 -3314 -2512 -1050 -5547 -1753 -8695 -2014 -443 -37 -708
-53 -1510 -93 -182 -9 -4049 -13 -16007 -15 l-15768 -3 0 31535 0 31535 15143
0 c9582 0 15300 -4 15572 -10z"/>
<path d="M43200 65465 l0 -7375 7313 3 c5486 3 7354 6 7482 15 954 66 1574
157 2279 333 508 127 1090 328 1551 534 676 303 1385 749 1872 1177 143 125
433 424 553 568 828 997 1297 2277 1434 3920 54 638 46 1482 -19 2090 -91 847
-297 1606 -610 2245 -197 404 -498 861 -813 1235 -138 164 -534 558 -692 690
-951 791 -2254 1352 -3795 1634 -855 157 -1814 258 -2800 296 -167 6 -2672 10
-7007 10 l-6748 0 0 -7375z"/>
<path d="M43200 39985 l0 -8655 7828 3 c8475 3 7883 0 8542 52 990 79 1941
229 2765 437 1069 269 2040 688 2883 1246 957 632 1739 1528 2281 2612 434
870 666 1819 762 3120 17 227 23 1190 10 1492 -53 1204 -229 2230 -541 3143
-293 855 -690 1575 -1223 2215 -159 191 -533 563 -727 725 -914 760 -2111
1373 -3410 1744 -1056 301 -2164 465 -3460 511 -185 6 -3005 10 -7997 10
l-7713 0 0 -8655z"/>
</g>
</svg>
