<?xml version="1.0" standalone="no"?>
<!DOCTYPE svg PUBLIC "-//W3C//DTD SVG 20010904//EN"
 "http://www.w3.org/TR/2001/REC-SVG-20010904/DTD/svg10.dtd">
<svg version="1.0" xmlns="http://www.w3.org/2000/svg"
 width="512.000000pt" height="512.000000pt" viewBox="0 0 512.000000 512.000000"
 preserveAspectRatio="xMidYMid meet">

<g transform="translate(0.000000,512.000000) scale(0.100000,-0.100000)"
fill="#000000" stroke="none">
<path d="M0 2560 l0 -2560 2560 0 2560 0 0 2560 0 2560 -2560 0 -2560 0 0
-2560z m2812 1494 c319 -54 633 -221 848 -450 92 -99 222 -278 208 -288 -2 -2
-149 -87 -327 -190 -255 -147 -326 -184 -333 -173 -28 51 -110 146 -162 188
-358 289 -875 211 -1121 -170 -184 -284 -158 -645 66 -912 82 -98 247 -198
389 -236 98 -26 273 -23 374 5 159 45 313 147 401 264 25 34 49 67 53 75 7 11
55 -13 228 -113 120 -69 267 -154 326 -188 59 -33 108 -64 108 -68 0 -3 -22
-40 -50 -81 -377 -563 -1090 -808 -1735 -596 -384 127 -707 409 -885 774 -208
426 -207 919 2 1335 158 314 391 544 703 695 283 137 598 182 907 129z m1098
-1329 l0 -85 85 0 85 0 0 -80 0 -80 -85 0 -85 0 0 -85 0 -85 -85 0 -85 0 0 85
0 85 -85 0 -85 0 0 80 0 80 85 0 85 0 0 85 0 85 85 0 85 0 0 -85z m630 0 l0
-85 85 0 85 0 0 -80 0 -80 -85 0 -85 0 0 -85 0 -85 -85 0 -85 0 0 85 0 85 -85
0 -85 0 0 80 0 80 85 0 85 0 0 85 0 85 85 0 85 0 0 -85z"/>
</g>
</svg>
