<?xml version="1.0" standalone="no"?>
<!DOCTYPE svg PUBLIC "-//W3C//DTD SVG 20010904//EN"
 "http://www.w3.org/TR/2001/REC-SVG-20010904/DTD/svg10.dtd">
<svg version="1.0" xmlns="http://www.w3.org/2000/svg"
 width="512.000000pt" height="512.000000pt" viewBox="0 0 512.000000 512.000000"
 preserveAspectRatio="xMidYMid meet">

<g transform="translate(0.000000,512.000000) scale(0.100000,-0.100000)"
fill="#000000" stroke="none">
<path d="M125 5096 c-59 -27 -77 -46 -104 -106 -20 -45 -21 -54 -21 -2430 l0
-2385 24 -50 c27 -59 46 -77 106 -104 45 -20 54 -21 2430 -21 l2385 0 50 24
c59 27 77 46 104 106 20 45 21 53 21 2430 0 2377 -1 2385 -21 2430 -27 60 -45
79 -104 106 l-50 24 -2385 0 -2385 0 -50 -24z m1873 -1751 c200 -47 335 -194
349 -379 5 -63 2 -81 -16 -118 -27 -57 -80 -88 -147 -88 -94 0 -158 57 -170
153 -5 34 -16 60 -35 81 -26 29 -32 31 -111 34 -74 3 -87 1 -118 -20 -58 -39
-61 -65 -58 -468 3 -321 5 -358 21 -388 24 -43 70 -62 152 -62 108 0 131 21
150 135 15 90 74 139 165 140 142 0 204 -123 150 -298 -61 -198 -261 -318
-508 -304 -179 9 -302 70 -381 188 -82 122 -94 221 -88 679 4 314 5 339 27
405 58 181 170 276 375 319 47 9 185 5 243 -9z m1162 -44 c70 -50 82 -107 56
-264 -7 -42 -10 -79 -8 -82 3 -3 27 -5 53 -5 54 0 48 -14 75 160 23 154 53
198 147 215 49 9 118 -16 151 -56 42 -49 43 -88 9 -286 l-5 -33 54 0 c66 0
114 -28 140 -80 35 -69 18 -143 -42 -194 -29 -23 -40 -26 -115 -26 -77 0 -83
-1 -89 -22 -15 -56 -9 -65 45 -71 67 -8 113 -38 138 -91 26 -52 26 -79 2 -133
-28 -61 -60 -77 -160 -83 l-86 -5 -27 -159 c-18 -110 -32 -167 -46 -185 -66
-89 -206 -85 -269 9 -27 40 -29 87 -8 215 21 131 23 125 -34 125 -59 0 -52 15
-82 -180 -21 -141 -23 -146 -58 -182 -68 -67 -162 -70 -227 -7 -54 52 -59 84
-36 231 10 70 17 130 14 133 -3 3 -26 5 -52 5 -152 0 -203 190 -77 284 19 14
47 20 106 24 85 5 90 9 91 70 0 20 -5 22 -52 22 -94 0 -150 56 -150 150 0 102
46 143 171 150 l86 5 21 136 c12 75 27 146 33 157 15 28 70 69 101 75 41 8
103 -2 130 -22z"/>
<path d="M3156 2642 c-2 -4 -7 -24 -11 -45 l-7 -37 55 0 55 0 5 38 c2 20 2 40
0 45 -5 9 -90 9 -97 -1z"/>
</g>
</svg>
