<?xml version="1.0" standalone="no"?>
<!DOCTYPE svg PUBLIC "-//W3C//DTD SVG 20010904//EN"
 "http://www.w3.org/TR/2001/REC-SVG-20010904/DTD/svg10.dtd">
<svg version="1.0" xmlns="http://www.w3.org/2000/svg"
 width="920.000000pt" height="300.000000pt" viewBox="0 0 920.000000 300.000000"
 preserveAspectRatio="xMidYMid meet">

<g transform="translate(0.000000,300.000000) scale(0.100000,-0.100000)"
fill="#000000" stroke="none">
<path d="M1900 2241 c-297 -173 -401 -238 -417 -263 l-23 -32 0 -469 c0 -446
1 -470 20 -507 16 -32 40 -50 143 -109 153 -87 191 -101 279 -101 104 0 165
38 199 126 7 20 10 175 10 489 l-1 460 -61 5 c-33 3 -63 2 -65 -2 -3 -4 -5
-192 -4 -418 0 -431 -3 -477 -43 -505 -49 -34 -109 -17 -277 83 l-65 38 -3
430 c-2 401 -1 432 15 446 27 23 723 421 737 421 6 0 103 -53 216 -118 113
-65 275 -158 360 -207 85 -50 159 -94 164 -98 9 -9 14 -865 5 -874 -17 -17
-735 -426 -747 -426 -8 0 -55 25 -104 55 -85 53 -120 65 -133 46 -3 -5 -28
-17 -56 -26 -27 -9 -48 -22 -46 -28 2 -6 68 -49 148 -96 213 -127 169 -135
604 117 193 112 371 217 396 233 84 53 81 30 77 569 -3 463 -4 476 -24 504
-13 18 -162 111 -415 257 -371 216 -396 229 -444 229 -47 0 -73 -13 -445 -229z"/>
<path d="M3665 1904 c-11 -3 -30 -7 -42 -10 -13 -2 -23 -11 -23 -20 0 -19 39
-53 62 -54 9 0 24 -7 32 -16 14 -13 16 -54 15 -302 0 -340 -2 -349 -72 -371
-42 -13 -48 -18 -45 -40 4 -37 32 -40 426 -40 319 -1 342 0 342 17 0 9 9 59
21 109 12 51 19 99 15 108 -11 30 -54 17 -80 -23 -53 -85 -135 -123 -264 -126
-123 -2 -122 -4 -122 173 l0 149 43 -9 c58 -13 89 -39 108 -90 14 -38 21 -44
45 -44 l29 0 0 175 0 175 -26 3 c-21 3 -28 -4 -48 -46 -26 -56 -63 -82 -115
-82 l-36 0 0 135 0 134 36 7 c20 4 66 4 101 1 81 -8 135 -38 183 -102 41 -55
66 -71 84 -56 7 6 16 8 19 4 4 -3 7 1 7 10 0 26 -39 219 -46 226 -7 7 -619 12
-649 5z"/>
<path d="M2415 1857 c-122 -32 -195 -103 -203 -201 -8 -103 33 -172 125 -206
31 -12 127 -31 212 -44 179 -27 227 -43 237 -80 14 -58 -18 -107 -83 -125 -51
-14 -226 -14 -275 1 -49 15 -83 49 -101 101 l-14 42 -64 0 -64 0 2 -48 c5 -92
68 -172 161 -207 107 -40 309 -45 412 -9 116 40 173 116 174 230 0 142 -66
187 -341 228 -167 25 -214 40 -229 70 -42 83 75 144 241 126 81 -8 123 -35
154 -98 l24 -48 61 3 61 3 -2 40 c-6 97 -76 179 -180 212 -66 20 -245 26 -308
10z"/>
<path d="M5150 1615 c-15 -28 -1 -55 30 -55 42 0 45 -20 48 -304 3 -292 -2
-405 -22 -431 -6 -9 -28 -20 -46 -24 -29 -6 -35 -11 -35 -31 l0 -25 181 -3
c145 -2 183 0 193 12 16 19 3 46 -24 46 -13 0 -33 9 -46 19 -22 17 -24 28 -27
130 l-4 111 106 -7 c70 -4 106 -3 106 4 0 6 14 16 30 23 51 21 128 114 146
177 41 140 -36 309 -159 354 -21 7 -37 17 -37 21 0 4 -22 8 -50 8 -27 0 -50
-4 -50 -10 0 -5 -6 -10 -14 -10 -7 0 -26 -10 -41 -22 l-28 -22 5 32 5 32 -127
0 c-124 0 -127 0 -140 -25z m364 -87 c14 -6 36 -31 48 -57 19 -39 23 -63 23
-151 0 -88 -3 -111 -21 -140 -35 -60 -106 -66 -141 -13 -15 22 -18 49 -18 143
1 128 13 179 52 210 30 24 26 23 57 8z"/>
<path d="M5944 1633 c-52 -3 -63 -7 -74 -28 -16 -31 -7 -55 22 -55 51 0 53 -5
56 -215 3 -157 1 -196 -10 -199 -7 -2 -26 -7 -41 -10 -24 -6 -27 -11 -25 -41
l2 -35 174 0 c104 0 171 4 167 9 -3 5 -1 12 5 16 26 16 -9 55 -50 55 -27 0
-29 3 -36 57 -4 31 -4 103 -1 159 4 82 9 110 27 139 25 40 36 44 45 15 9 -28
63 -70 90 -70 41 0 77 40 85 95 7 47 6 51 -25 82 -29 29 -39 33 -89 33 -56 0
-69 -6 -129 -64 -19 -18 -19 -18 -15 23 l4 41 -61 -2 c-33 -1 -87 -3 -121 -5z"/>
<path d="M6619 1626 c-64 -22 -137 -76 -138 -99 0 -4 -12 -33 -28 -65 -23 -48
-28 -70 -28 -137 0 -70 4 -87 30 -134 31 -56 85 -108 123 -117 12 -4 22 -10
22 -15 0 -5 48 -9 108 -9 123 0 166 15 225 73 30 31 34 40 28 64 -10 39 -32
39 -90 0 -27 -19 -66 -38 -86 -41 -76 -15 -145 51 -161 152 l-7 42 124 1 c68
0 147 4 174 7 l50 7 3 44 c3 34 -4 59 -29 108 -37 73 -73 108 -127 123 -50 14
-149 12 -193 -4z m142 -95 c21 -21 29 -39 29 -64 0 -41 -13 -47 -102 -47 -51
0 -58 2 -58 19 0 51 48 121 83 121 10 0 32 -13 48 -29z"/>
<path d="M7182 1630 c-23 -10 -78 -67 -99 -104 -17 -29 -16 -101 1 -134 21
-41 53 -66 146 -117 102 -57 120 -71 120 -100 0 -31 -26 -50 -69 -50 -51 0
-92 33 -130 105 -55 102 -85 93 -93 -28 -3 -42 -3 -92 -1 -109 5 -30 9 -33 39
-33 18 0 35 4 39 9 3 6 19 4 40 -5 41 -17 181 -19 222 -3 34 13 80 55 99 91
18 35 18 131 0 166 -22 42 -50 63 -164 122 -58 30 -111 63 -116 73 -15 25 16
47 67 47 32 0 46 -7 76 -38 20 -20 44 -52 53 -70 40 -75 83 -44 73 53 -4 33
-8 74 -9 90 -3 26 -8 30 -35 33 -17 2 -31 -1 -31 -7 0 -6 -16 -4 -41 4 -46 16
-151 19 -187 5z"/>
<path d="M7712 1619 c-51 -26 -67 -47 -82 -112 -14 -64 2 -122 44 -162 18 -16
74 -52 125 -80 51 -27 96 -56 101 -65 26 -48 -32 -91 -93 -71 -41 14 -72 46
-107 108 -57 104 -90 80 -90 -68 0 -79 3 -98 16 -103 26 -10 59 -7 72 6 10 10
15 10 22 -2 7 -12 33 -15 119 -15 107 0 110 1 147 30 20 17 42 40 48 50 6 11
15 23 20 26 5 4 11 38 13 76 l5 69 -40 42 c-26 27 -74 58 -134 86 -109 52
-128 66 -128 94 0 22 18 32 61 32 49 0 87 -27 120 -85 17 -30 34 -56 37 -56
61 -12 67 0 57 113 -7 74 -9 80 -34 89 -16 7 -32 7 -41 1 -10 -5 -26 -4 -45 4
-50 21 -163 17 -213 -7z"/>
<path d="M4445 1600 c-6 -24 14 -50 40 -50 16 0 62 -51 138 -153 l66 -89 -66
-79 c-70 -85 -88 -99 -126 -99 -31 0 -48 -20 -45 -54 l2 -26 133 0 133 0 6 25
c8 31 -10 55 -42 55 -12 0 -25 4 -28 9 -6 9 72 116 79 109 2 -2 22 -28 44 -58
l41 -55 -29 -8 c-37 -9 -45 -21 -37 -53 l6 -24 182 0 c100 0 178 3 175 7 -4 3
-2 12 3 18 17 21 2 39 -53 65 -49 24 -106 87 -204 227 -14 22 -12 26 48 98 39
45 74 78 89 81 50 11 58 15 64 29 15 39 -2 45 -120 45 -97 0 -116 -3 -121 -16
-8 -22 9 -48 36 -52 28 -5 27 -10 -17 -61 l-38 -44 -38 47 c-21 26 -37 48 -35
50 2 2 14 9 27 15 24 13 30 49 10 56 -7 2 -81 6 -165 7 l-152 3 -6 -25z"/>
</g>
</svg>
