<?xml version="1.0" standalone="no"?>
<!DOCTYPE svg PUBLIC "-//W3C//DTD SVG 20010904//EN"
 "http://www.w3.org/TR/2001/REC-SVG-20010904/DTD/svg10.dtd">
<svg version="1.0" xmlns="http://www.w3.org/2000/svg"
 width="798.000000pt" height="301.000000pt" viewBox="0 0 798.000000 301.000000"
 preserveAspectRatio="xMidYMid meet">

<g transform="translate(0.000000,301.000000) scale(0.100000,-0.100000)"
fill="#000000" stroke="none">
<path d="M304 3000 c-110 -22 -215 -107 -267 -218 l-32 -67 0 -1210 0 -1210
32 -67 c40 -85 106 -151 191 -191 l67 -32 3695 0 3695 0 67 32 c85 40 151 106
191 191 l32 67 0 1210 0 1210 -32 67 c-40 85 -106 151 -191 191 l-67 32 -3670
1 c-2019 1 -3689 -2 -3711 -6z m1049 -885 c18 -18 22 -192 5 -212 -7 -8 -36
-13 -79 -13 -94 0 -109 -15 -109 -110 l0 -70 101 0 101 0 -5 -32 c-3 -18 -9
-64 -13 -103 -10 -101 -11 -104 -97 -107 l-72 -3 -3 -312 -2 -313 -140 0 -140
0 0 315 0 315 -58 0 c-32 0 -63 5 -70 12 -8 8 -12 47 -12 108 0 61 4 100 12
108 7 7 35 12 64 12 l51 0 5 114 c4 103 7 121 34 173 51 99 124 129 331 132
60 1 85 -3 96 -14z m2647 -210 l0 -195 156 0 c94 0 173 -5 197 -12 60 -18 112
-72 131 -137 22 -76 23 -430 1 -516 -22 -83 -69 -144 -139 -179 -50 -26 -70
-30 -164 -34 -142 -6 -444 15 -454 31 -4 7 -7 275 -5 597 l2 585 25 12 c26 12
176 40 223 42 l27 1 0 -195z m2532 -182 l3 -377 99 159 c54 88 109 170 123
183 22 21 33 22 159 22 105 0 134 -3 134 -13 0 -8 -48 -90 -106 -183 -59 -93
-116 -184 -127 -202 l-19 -32 122 -204 c67 -112 124 -212 126 -222 5 -18 -3
-19 -128 -18 -82 0 -141 5 -155 12 -11 6 -58 78 -103 159 -121 217 -110 216
-110 11 l0 -176 -50 -7 c-72 -10 -211 4 -232 23 -17 14 -18 55 -18 592 0 466
3 580 13 594 10 13 43 24 113 36 54 10 111 18 126 19 l28 1 2 -377z m-3862
-18 c68 -9 130 -21 137 -27 9 -7 13 -41 13 -116 l0 -105 -42 7 c-24 3 -99 9
-168 12 -125 7 -126 7 -155 -19 l-30 -25 0 -162 0 -162 30 -25 c28 -25 33 -26
125 -19 52 3 128 9 168 12 l72 7 0 -105 c0 -75 -4 -109 -13 -116 -7 -6 -53
-18 -101 -27 -263 -45 -456 19 -525 176 -56 126 -54 401 3 524 53 114 167 179
326 184 20 0 91 -6 160 -14z m2380 5 c153 -19 239 -82 277 -205 15 -49 18 -92
18 -240 -1 -164 -3 -185 -24 -239 -40 -102 -111 -162 -218 -187 -65 -15 -235
-12 -305 4 -81 20 -159 82 -195 156 -27 55 -28 60 -31 259 -4 240 4 278 75
353 54 58 117 89 203 99 96 11 108 11 200 0z m-3275 -10 c100 -8 128 -14 174
-37 47 -24 60 -37 86 -87 l30 -59 0 -341 0 -341 -105 -3 c-98 -3 -105 -1 -121
19 l-17 23 -68 -23 c-197 -64 -350 -17 -404 125 -48 130 -10 268 89 323 36 20
63 25 179 31 76 4 145 11 155 15 25 11 23 76 -4 101 -18 16 -40 19 -163 22
-202 4 -190 -3 -181 88 8 89 20 135 37 146 17 10 165 10 313 -2z m1696 -16
c66 -31 113 -77 140 -136 20 -47 23 -69 23 -203 l1 -150 -235 -5 -235 -5 2
-40 c2 -24 11 -47 23 -60 24 -23 87 -26 303 -12 l127 9 0 -105 c0 -74 -4 -108
-13 -115 -21 -18 -193 -42 -292 -42 -227 1 -359 72 -412 223 -15 43 -18 84
-18 237 0 212 11 264 73 332 72 80 136 99 322 95 121 -2 152 -6 191 -23z
m2531 2 c65 -24 130 -85 159 -148 23 -50 24 -63 24 -258 0 -174 -3 -213 -19
-258 -45 -130 -161 -192 -360 -192 -207 0 -318 57 -373 191 -15 37 -18 74 -18
244 l0 200 36 76 c41 85 80 122 162 151 69 25 316 20 389 -6z m1360 -652 c73
-65 53 -172 -39 -211 -91 -37 -188 67 -149 161 30 71 133 98 188 50z"/>
<path d="M4045 1469 c-52 -15 -55 -27 -55 -226 l0 -183 86 0 c81 0 87 1 115
29 l29 29 0 157 c0 152 -1 156 -25 180 -19 20 -34 25 -72 24 -26 0 -61 -5 -78
-10z"/>
<path d="M4893 1470 c-45 -19 -55 -59 -51 -217 3 -145 3 -145 31 -169 40 -34
124 -34 164 0 l28 24 0 161 c0 152 -1 162 -22 182 -24 25 -111 36 -150 19z"/>
<path d="M1631 1123 c-19 -16 -21 -22 -10 -50 11 -32 13 -33 69 -33 67 0 95
18 104 68 l6 32 -74 0 c-55 0 -79 -4 -95 -17z"/>
<path d="M3195 1478 c-28 -16 -35 -28 -35 -65 l0 -33 100 0 100 0 0 45 c0 40
-3 47 -26 55 -34 13 -114 12 -139 -2z"/>
<path d="M5733 1470 c-37 -15 -43 -42 -43 -204 0 -142 2 -158 20 -176 26 -26
60 -34 118 -27 77 8 82 22 82 204 l0 155 -29 29 c-25 24 -37 29 -78 28 -26 0
-58 -4 -70 -9z"/>
<path d="M7244 1036 c-69 -30 -86 -111 -35 -168 25 -28 36 -33 76 -33 40 0 51
5 76 33 52 58 34 138 -37 168 -40 17 -41 17 -80 0z m85 -54 c6 -11 6 -24 0
-34 -6 -10 -5 -26 1 -43 12 -32 12 -35 1 -35 -6 0 -16 12 -23 28 -7 15 -20 27
-28 27 -9 0 -16 -11 -18 -27 -6 -54 -22 -27 -22 37 l0 65 40 0 c27 0 42 -5 49
-18z"/>
<path d="M7266 982 c-15 -14 -4 -32 19 -32 30 0 34 25 6 33 -11 3 -22 2 -25
-1z"/>
</g>
</svg>
