<?xml version="1.0" standalone="no"?>
<!DOCTYPE svg PUBLIC "-//W3C//DTD SVG 20010904//EN"
 "http://www.w3.org/TR/2001/REC-SVG-20010904/DTD/svg10.dtd">
<svg version="1.0" xmlns="http://www.w3.org/2000/svg"
 width="180.000000pt" height="180.000000pt" viewBox="0 0 180.000000 180.000000"
 preserveAspectRatio="xMidYMid meet">

<g transform="translate(0.000000,180.000000) scale(0.100000,-0.100000)"
fill="#000000" stroke="none">
<path d="M511 1716 c-10 -12 -207 -1241 -209 -1306 -1 -23 27 -40 282 -182
195 -109 293 -158 314 -158 21 0 122 51 322 162 280 155 291 162 286 187 -3
14 -40 233 -81 485 -42 253 -80 466 -86 473 -25 29 -55 13 -154 -87 l-99 -99
-76 147 c-75 144 -77 147 -109 147 -31 0 -35 -5 -75 -81 l-42 -81 -94 176
c-51 97 -102 188 -112 204 -21 29 -49 35 -67 13z m339 -557 l72 -131 -93 -97
c-246 -253 -475 -481 -482 -481 -9 0 415 840 424 840 4 0 39 -59 79 -131z"/>
</g>
</svg>
