<?xml version="1.0" standalone="no"?>
<!DOCTYPE svg PUBLIC "-//W3C//DTD SVG 20010904//EN"
 "http://www.w3.org/TR/2001/REC-SVG-20010904/DTD/svg10.dtd">
<svg version="1.0" xmlns="http://www.w3.org/2000/svg"
 width="555.000000pt" height="512.000000pt" viewBox="0 0 555.000000 512.000000"
 preserveAspectRatio="xMidYMid meet">

<g transform="translate(0.000000,512.000000) scale(0.100000,-0.100000)"
fill="#000000" stroke="none">
<path d="M977 5099 c-9 -5 -23 -22 -31 -37 -16 -31 -548 -1669 -550 -1692 -1
-12 109 -26 670 -85 401 -42 670 -66 668 -60 -2 5 -118 366 -259 800 -353
1088 -335 1036 -361 1062 -18 18 -34 23 -71 23 -26 0 -56 -5 -66 -11z"/>
<path d="M4439 5086 c-19 -19 -93 -235 -322 -941 -164 -504 -297 -918 -295
-919 6 -5 1338 101 1344 106 3 4 -119 393 -272 865 -310 956 -293 913 -382
913 -39 0 -54 -5 -73 -24z"/>
<path d="M365 3290 c-3 -5 447 -625 1001 -1377 1316 -1787 1319 -1791 1296
-1768 -10 11 -538 682 -1172 1490 -634 809 -1158 1476 -1164 1483 -17 17 -326
-932 -326 -1000 0 -31 9 -63 28 -97 26 -50 84 -94 1357 -1018 732 -532 1338
-966 1347 -965 9 0 20 -8 23 -19 8 -25 35 -24 42 2 3 12 11 18 19 15 8 -3 572
400 1337 955 727 529 1331 968 1341 977 32 28 56 93 56 152 0 44 -30 148 -152
522 -83 257 -152 467 -153 465 -18 -27 -2284 -2888 -2298 -2902 -27 -26 -111
-139 1047 1413 1234 1655 1209 1622 1205 1626 -2 2 -314 -21 -692 -53 -504
-41 -690 -59 -696 -69 -4 -7 -223 -672 -486 -1477 -264 -805 -481 -1463 -483
-1461 -2 2 184 666 412 1475 229 808 416 1475 416 1481 0 7 -282 10 -906 10
l-906 0 6 -22 c3 -13 190 -657 416 -1432 226 -775 409 -1410 407 -1412 -6 -7
-918 2837 -912 2846 7 11 9 11 -710 90 -352 38 -652 72 -667 75 -15 2 -30 0
-33 -5z m2344 -3070 c0 -9 -4 -8 -9 5 -5 11 -9 27 -9 35 0 9 4 8 9 -5 5 -11 9
-27 9 -35z m221 -44 c0 -2 -8 -10 -17 -17 -16 -13 -17 -12 -4 4 13 16 21 21
21 13z"/>
</g>
</svg>
