<?xml version="1.0" standalone="no"?>
<!DOCTYPE svg PUBLIC "-//W3C//DTD SVG 20010904//EN"
 "http://www.w3.org/TR/2001/REC-SVG-20010904/DTD/svg10.dtd">
<svg version="1.0" xmlns="http://www.w3.org/2000/svg"
 width="2000.000000pt" height="2000.000000pt" viewBox="0 0 2000.000000 2000.000000"
 preserveAspectRatio="xMidYMid meet">

<g transform="translate(0.000000,2000.000000) scale(0.100000,-0.100000)"
fill="#000000" stroke="none">
<path d="M0 14801 l0 -5200 198 207 c137 143 8843 9294 9660 10155 l36 37
-4947 0 -4947 0 0 -5199z"/>
<path d="M5117 14588 l-5117 -5413 0 -4535 0 -4535 323 321 c177 177 2252
2228 4612 4559 2360 2331 4469 4416 4687 4634 l398 396 39 -40 39 -40 -4913
-4965 -4914 -4965 4935 -3 c2715 -1 7155 -1 9867 0 l4931 3 -4982 5015 -4982
5015 4983 4983 4982 4982 -4885 0 -4886 0 -5117 -5412z"/>
</g>
</svg>
