<?xml version="1.0" standalone="no"?>
<!DOCTYPE svg PUBLIC "-//W3C//DTD SVG 20010904//EN"
 "http://www.w3.org/TR/2001/REC-SVG-20010904/DTD/svg10.dtd">
<svg version="1.0" xmlns="http://www.w3.org/2000/svg"
 width="920.000000pt" height="920.000000pt" viewBox="0 0 920.000000 920.000000"
 preserveAspectRatio="xMidYMid meet">

<g transform="translate(0.000000,920.000000) scale(0.100000,-0.100000)"
fill="#000000" stroke="none">
<path d="M4554 8873 c-20 -62 -39 -102 -62 -133 -14 -19 -119 -127 -234 -239
-184 -180 -230 -231 -384 -432 -113 -147 -194 -265 -232 -336 -190 -351 -225
-421 -270 -543 -28 -74 -67 -180 -88 -235 -60 -160 -64 -174 -94 -295 -42
-170 -76 -353 -102 -545 -20 -147 -23 -210 -22 -465 1 -248 5 -317 23 -435 26
-166 51 -280 96 -430 204 -682 597 -1251 1227 -1778 52 -43 60 -55 79 -119 34
-114 66 -331 73 -488 10 -211 9 -208 62 -231 59 -25 123 -26 125 -1 1 9 1 98
0 197 -3 178 10 381 30 482 19 96 61 157 168 241 100 79 281 255 412 402 302
337 538 788 669 1275 94 350 114 527 107 925 -7 378 -34 561 -134 895 -126
426 -292 793 -511 1130 -148 228 -268 376 -506 625 -173 180 -199 217 -296
399 -67 126 -81 146 -104 149 -18 2 -28 -2 -32 -15z"/>
<path d="M6360 2120 c-9 -6 -43 -71 -38 -74 2 -2 36 -8 77 -15 40 -6 82 -16
93 -22 46 -25 48 -49 48 -554 0 -548 -1 -557 -64 -586 -23 -10 -51 -19 -62
-19 -27 0 -42 -18 -50 -59 l-7 -33 379 4 379 4 90 28 c281 86 458 269 504 520
15 83 13 248 -4 329 -37 174 -163 338 -315 409 -137 65 -184 70 -627 72 -217
0 -398 -1 -403 -4z m705 -105 c220 -46 378 -207 420 -428 65 -340 -80 -644
-339 -713 -103 -28 -277 -12 -342 31 -53 35 -54 43 -54 589 l0 505 22 15 c30
21 196 21 293 1z"/>
<path d="M7895 2115 c-16 -14 -36 -63 -27 -68 4 -3 30 -8 57 -11 76 -11 111
-24 124 -49 9 -16 11 -156 9 -549 -3 -608 6 -559 -107 -580 -57 -11 -65 -15
-79 -45 -9 -18 -12 -36 -8 -40 4 -5 166 -8 359 -8 341 0 354 1 427 23 224 70
347 201 358 381 6 103 -14 163 -76 232 -43 48 -162 119 -199 119 -29 0 -20 21
19 46 134 83 184 200 143 340 -22 77 -94 150 -181 185 -54 21 -76 23 -274 26
-118 2 -287 4 -374 6 -95 1 -164 -2 -171 -8z m630 -109 c62 -19 119 -65 147
-119 24 -48 29 -159 10 -218 -14 -41 -64 -93 -107 -110 -37 -14 -262 -21 -293
-8 l-24 9 7 223 c6 188 10 224 24 235 20 17 162 10 236 -12z m66 -585 c84 -32
134 -74 166 -139 24 -49 28 -69 28 -142 0 -68 -5 -94 -23 -132 -53 -108 -148
-154 -306 -146 -108 6 -141 19 -167 70 -17 34 -19 60 -19 279 l0 242 133 -6
c99 -4 147 -11 188 -26z"/>
<path d="M508 1675 c-3 -4 -75 -23 -160 -44 -129 -32 -153 -41 -153 -56 0 -14
17 -26 60 -43 103 -41 96 -15 93 -343 -3 -330 -1 -320 -95 -339 -53 -11 -54
-12 -51 -43 l3 -32 222 0 223 0 0 31 c0 33 -13 44 -54 44 -13 0 -35 9 -50 21
l-26 20 0 285 0 284 42 30 c79 58 181 74 254 41 97 -44 114 -105 113 -390 -1
-119 -4 -227 -8 -241 -7 -24 -38 -40 -103 -54 -22 -5 -28 -12 -28 -31 0 -25 0
-25 98 -25 55 0 154 -3 221 -7 l123 -6 -4 34 c-3 31 -6 34 -48 42 -80 15 -77
6 -83 324 -5 321 -12 294 87 339 48 22 68 26 125 22 81 -4 127 -33 163 -101
21 -40 23 -57 26 -289 4 -238 3 -247 -17 -267 -11 -11 -41 -26 -66 -32 -43
-11 -46 -13 -43 -43 l3 -31 217 0 c209 0 217 1 222 20 10 37 6 42 -51 58 -95
27 -87 1 -93 314 -5 258 -7 282 -28 335 -26 65 -80 125 -137 153 -65 32 -164
27 -249 -13 -38 -18 -91 -48 -118 -67 -26 -19 -54 -35 -61 -35 -7 0 -30 20
-50 45 -103 123 -238 121 -433 -6 -33 -21 -63 -39 -67 -39 -3 0 -7 32 -9 71
-2 39 -6 68 -10 64z"/>
<path d="M2380 1674 c-109 -21 -237 -90 -298 -159 -71 -81 -102 -172 -102
-300 0 -246 131 -418 345 -456 133 -23 311 25 409 111 213 187 196 594 -30
737 -27 17 -71 38 -98 47 -50 17 -181 28 -226 20z m128 -113 c53 -27 109 -92
143 -165 54 -116 59 -320 11 -430 -37 -83 -124 -133 -214 -123 -167 20 -282
193 -282 427 0 166 51 269 149 306 51 18 141 11 193 -15z"/>
<path d="M3255 1650 c-55 -16 -127 -34 -160 -42 -47 -10 -61 -17 -63 -33 -2
-17 12 -27 78 -57 l80 -36 0 -291 c0 -332 4 -317 -88 -336 -41 -9 -47 -13 -50
-38 -6 -53 -1 -54 230 -50 117 3 219 6 226 8 6 3 12 20 12 38 0 34 -1 34 -52
40 -88 10 -88 11 -90 281 -2 266 -1 302 12 326 14 27 108 70 168 77 96 11 188
-47 211 -134 6 -21 11 -144 11 -272 1 -266 2 -262 -80 -278 -42 -8 -45 -11
-48 -42 -2 -19 2 -37 8 -41 6 -4 39 -6 73 -4 34 1 133 3 220 3 l157 1 0 38 c0
39 0 39 -55 51 -87 20 -85 13 -85 244 0 244 -11 351 -43 421 -85 184 -289 208
-490 57 -29 -23 -57 -41 -61 -41 -4 0 -5 22 -1 49 7 49 0 92 -13 90 -4 -1 -52
-14 -107 -29z"/>
<path d="M4553 1665 c-134 -30 -248 -109 -289 -202 -24 -52 -25 -213 -2 -264
24 -55 82 -113 138 -140 27 -13 50 -26 50 -30 0 -10 -31 -34 -97 -74 -44 -26
-63 -44 -63 -58 0 -34 40 -86 86 -113 24 -14 44 -29 44 -33 0 -4 -40 -40 -90
-79 -110 -89 -125 -110 -124 -178 3 -104 85 -205 197 -240 71 -22 228 -29 300
-14 83 17 208 83 275 145 137 127 164 330 56 424 -46 41 -110 57 -294 76 -85
9 -172 20 -192 26 -41 11 -63 39 -53 68 10 32 33 43 116 57 44 7 109 26 144
43 162 75 228 217 190 407 -4 19 -1 20 50 16 52 -4 56 -3 90 31 30 30 35 42
35 80 l0 44 -47 -23 c-64 -33 -131 -31 -242 6 -110 36 -196 44 -278 25z m88
-76 c54 -18 94 -54 120 -106 19 -40 23 -64 24 -143 0 -121 -24 -172 -98 -209
-45 -22 -52 -23 -104 -11 -105 23 -173 127 -173 266 0 156 102 246 231 203z
m124 -870 c122 -21 185 -81 185 -174 0 -141 -156 -233 -347 -207 -86 12 -135
34 -185 84 -48 48 -65 104 -49 159 14 47 68 110 114 133 38 19 188 22 282 5z"/>
<path d="M5596 1664 c-149 -36 -264 -121 -322 -240 -34 -68 -38 -84 -42 -177
-12 -268 115 -446 348 -488 176 -31 387 56 479 199 87 136 100 342 32 489 -84
178 -287 267 -495 217z m162 -103 c92 -48 156 -152 180 -295 26 -156 -6 -307
-80 -372 -72 -63 -164 -69 -259 -17 -150 81 -225 335 -164 548 21 70 72 129
130 151 51 18 142 11 193 -15z"/>
</g>
</svg>
