<?xml version="1.0" standalone="no"?>
<!DOCTYPE svg PUBLIC "-//W3C//DTD SVG 20010904//EN"
 "http://www.w3.org/TR/2001/REC-SVG-20010904/DTD/svg10.dtd">
<svg version="1.0" xmlns="http://www.w3.org/2000/svg"
 width="800.000000pt" height="600.000000pt" viewBox="0 0 800.000000 600.000000"
 preserveAspectRatio="xMidYMid meet">

<g transform="translate(0.000000,600.000000) scale(0.100000,-0.100000)"
fill="#000000" stroke="none">
<path d="M5012 4828 c-9 -9 -12 -126 -12 -465 0 -391 -2 -454 -15 -459 -8 -3
-51 15 -96 41 -46 26 -93 48 -105 48 -26 0 -612 -335 -631 -361 -10 -12 -13
-102 -13 -368 0 -321 2 -354 18 -372 9 -10 139 -89 287 -174 344 -198 329
-190 358 -179 54 21 584 333 605 357 l22 26 -2 843 c-3 830 -3 845 -23 864
-20 19 -359 211 -373 211 -4 0 -13 -5 -20 -12z m-116 -1379 l104 -61 0 -123 0
-123 -106 -62 c-63 -37 -112 -59 -121 -56 -9 4 -58 31 -110 62 l-94 55 3 127
3 126 100 58 c55 32 104 58 108 58 5 0 55 -27 113 -61z"/>
<path d="M1325 3837 c-204 -118 -304 -181 -312 -198 -24 -47 -11 -937 14 -946
14 -6 342 176 381 210 22 20 22 25 22 248 0 125 3 235 6 244 8 20 185 125 211
125 19 0 163 -80 196 -108 15 -14 17 -38 17 -244 0 -132 4 -237 10 -248 5 -10
94 -66 197 -125 142 -82 191 -105 202 -98 14 9 16 67 19 471 l2 461 -22 25
c-30 32 -596 356 -623 356 -11 0 -155 -78 -320 -173z"/>
<path d="M2898 3842 c-157 -92 -295 -176 -307 -186 -21 -19 -21 -26 -21 -383
0 -333 1 -364 18 -380 37 -37 599 -353 627 -353 29 0 591 316 627 353 17 16
18 47 18 380 l0 364 -22 20 c-46 42 -599 353 -626 352 -16 0 -148 -71 -314
-167z"/>
<path d="M6035 3830 c-159 -93 -298 -179 -307 -191 -16 -19 -18 -53 -18 -369
0 -317 2 -350 18 -368 24 -27 597 -352 622 -352 25 0 388 201 395 219 3 7 1
19 -5 26 -6 7 -131 82 -278 166 -147 83 -282 163 -299 176 l-33 24 0 105 c0
58 4 113 10 123 5 10 55 44 110 75 l100 57 93 -52 c134 -76 127 -66 127 -180
0 -86 2 -98 19 -104 12 -4 75 28 192 96 96 56 182 108 192 117 14 13 17 33 17
127 0 94 -3 114 -17 127 -10 8 -147 90 -306 182 -191 110 -297 166 -315 165
-16 0 -146 -70 -317 -169z"/>
<path d="M6285 3392 l-60 -37 -3 -77 -3 -77 48 -31 c70 -44 89 -47 140 -19 75
41 83 52 83 122 0 36 -5 70 -12 79 -12 14 -120 79 -129 77 -2 0 -31 -17 -64
-37z"/>
<path d="M3769 2561 c-332 -191 -423 -247 -443 -274 -20 -27 -21 -42 -24 -360
-2 -220 0 -345 8 -369 13 -44 42 -68 162 -133 108 -58 172 -68 241 -37 34 15
51 31 66 61 20 38 21 56 21 391 l0 350 -54 0 c-40 0 -55 -4 -60 -16 -3 -9 -6
-159 -6 -333 0 -295 -1 -319 -18 -334 -30 -27 -61 -20 -152 32 l-85 48 -3 319
-2 320 266 153 c147 85 272 154 279 154 6 0 131 -69 278 -154 l267 -154 -2
-318 -3 -319 -265 -154 c-146 -84 -269 -154 -274 -154 -6 0 -40 18 -77 40 -37
22 -73 40 -81 39 -22 -1 -102 -43 -102 -54 1 -5 52 -41 115 -78 101 -61 119
-68 154 -64 60 6 601 321 633 367 l23 34 -3 353 -3 353 -30 29 c-16 16 -155
102 -307 190 -242 140 -283 161 -321 161 -36 0 -69 -15 -198 -89z"/>
<path d="M3994 2197 c-90 -30 -134 -87 -134 -174 0 -105 54 -142 254 -172 161
-24 196 -45 166 -101 -14 -27 -64 -40 -154 -40 -100 0 -146 19 -162 68 -15 46
-26 54 -75 50 -41 -3 -44 -5 -47 -33 -9 -79 54 -160 146 -186 27 -8 92 -14
152 -14 95 0 111 3 163 28 79 39 111 93 105 177 -8 105 -56 136 -264 169 -132
21 -164 32 -164 59 1 45 45 66 142 66 88 0 122 -17 144 -70 14 -33 16 -34 69
-34 54 0 55 1 54 28 -2 69 -51 140 -118 169 -49 21 -222 27 -277 10z"/>
</g>
</svg>
