<?xml version="1.0" standalone="no"?>
<!DOCTYPE svg PUBLIC "-//W3C//DTD SVG 20010904//EN"
 "http://www.w3.org/TR/2001/REC-SVG-20010904/DTD/svg10.dtd">
<svg version="1.0" xmlns="http://www.w3.org/2000/svg"
 width="390.000000pt" height="350.000000pt" viewBox="0 0 390.000000 350.000000"
 preserveAspectRatio="xMidYMid meet">

<g transform="translate(0.000000,350.000000) scale(0.100000,-0.100000)"
fill="#000000" stroke="none">
<path d="M3442 2564 c-73 -111 -332 -209 -642 -244 -144 -15 -517 -5 -650 19
-239 43 -411 112 -493 200 l-47 50 0 -880 c0 -963 -3 -914 58 -972 83 -79 273
-152 484 -187 176 -29 589 -29 763 0 309 50 510 152 545 275 8 29 10 285 8
907 l-3 867 -23 -35z m-1239 -739 c14 -6 17 -20 17 -72 0 -58 -2 -64 -17 -58
-101 43 -144 45 -178 10 -14 -13 -25 -28 -25 -33 0 -22 43 -60 105 -92 82 -43
134 -97 137 -143 4 -93 -24 -151 -89 -183 -48 -23 -187 -31 -249 -14 l-44 13
-1 51 c-1 49 1 78 5 83 1 1 24 -9 51 -22 73 -37 162 -32 179 10 12 32 -13 64
-76 96 -132 67 -162 106 -156 205 4 58 8 68 39 100 52 51 98 65 199 60 47 -2
93 -7 103 -11z m522 -12 c191 -100 208 -410 29 -536 l-46 -32 76 -70 c42 -39
76 -74 76 -78 0 -4 -40 -7 -89 -7 -86 0 -90 1 -111 28 -58 73 -102 112 -128
112 -39 0 -122 42 -159 81 -75 79 -99 218 -58 339 24 72 103 152 171 174 68
22 186 16 239 -11z m385 -223 l0 -240 110 0 111 0 -3 -57 -3 -58 -180 0 -180
0 -1 290 c-1 160 1 293 3 298 2 4 35 7 74 7 l69 0 0 -240z"/>
<path d="M2546 1710 c-66 -20 -99 -78 -100 -175 -1 -86 24 -142 75 -167 69
-36 140 -16 181 49 19 31 23 52 23 113 0 95 -28 151 -87 175 -43 17 -50 17
-92 5z"/>
<path d="M200 1595 l0 -435 70 0 70 0 0 295 c0 162 3 295 8 295 4 -1 68 -132
143 -293 l135 -292 82 -3 82 -3 0 436 0 435 -75 0 -75 0 -2 -290 -3 -290 -132
287 -132 288 -85 3 -86 3 0 -436z"/>
<path d="M1130 1779 c-144 -29 -232 -172 -217 -353 15 -173 125 -274 293 -269
108 2 194 58 238 153 31 66 31 254 0 320 -53 116 -181 176 -314 149z m128
-125 c41 -27 56 -79 56 -189 1 -76 -4 -108 -16 -132 -53 -96 -158 -98 -205 -3
-19 37 -23 61 -23 140 0 79 4 103 23 140 33 67 101 85 165 44z"/>
</g>
</svg>
