<?xml version="1.0" standalone="no"?>
<!DOCTYPE svg PUBLIC "-//W3C//DTD SVG 20010904//EN"
 "http://www.w3.org/TR/2001/REC-SVG-20010904/DTD/svg10.dtd">
<svg version="1.0" xmlns="http://www.w3.org/2000/svg"
 width="512.000000pt" height="512.000000pt" viewBox="0 0 512.000000 512.000000"
 preserveAspectRatio="xMidYMid meet">

<g transform="translate(0.000000,512.000000) scale(0.100000,-0.100000)"
fill="#000000" stroke="none">
<path d="M1730 4935 c-751 -101 -1425 -191 -1497 -200 l-133 -18 0 -2153 c0
-1835 2 -2154 14 -2154 15 0 2917 -396 2974 -405 l32 -6 0 221 0 220 795 0
c549 0 810 3 847 11 107 23 199 102 237 203 l21 57 -2 1867 -3 1867 -26 55
c-33 70 -89 126 -159 159 l-55 26 -827 3 -828 2 0 215 c0 166 -3 215 -12 214
-7 -1 -627 -83 -1378 -184z m3037 -455 c68 -41 63 114 63 -1917 0 -1781 -1
-1839 -19 -1869 -41 -67 -3 -64 -890 -64 l-801 0 2 458 3 457 633 3 c699 2
663 -1 700 66 16 28 17 108 20 955 2 624 6 929 13 937 6 7 24 16 40 19 87 19
117 -107 33 -135 -46 -16 -61 -44 -39 -76 14 -21 21 -24 48 -18 125 27 164
182 72 282 l-33 37 -746 3 -746 2 0 440 0 440 808 0 c783 0 808 -1 839 -20z
m-559 -1242 l3 -38 -485 0 -486 0 0 40 0 40 483 -2 482 -3 3 -37z m-1884 -154
c139 -36 240 -115 266 -209 39 -141 -32 -287 -169 -348 -45 -20 -45 -20 -21
-30 118 -47 186 -103 223 -185 32 -69 31 -208 -2 -275 -47 -95 -143 -169 -264
-204 -102 -29 -584 -26 -663 4 -12 4 -14 110 -14 613 l0 608 73 12 c189 33
473 39 571 14z m1886 -44 l0 -40 -485 0 -485 0 0 40 0 40 485 0 485 0 0 -40z
m-2660 28 c0 -2 -87 -273 -194 -603 l-194 -600 -143 3 c-79 1 -146 6 -150 10
-5 5 -144 477 -335 1133 -4 15 10 17 123 21 70 2 129 4 130 3 6 -3 175 -651
199 -762 25 -120 44 -173 44 -128 0 42 169 685 231 882 l10 32 87 4 c48 1 111
4 140 5 28 1 52 1 52 0z m2658 -250 l3 -38 -485 0 -486 0 0 40 0 40 483 -2
482 -3 3 -37z m0 -195 l-3 -38 -482 -3 -483 -2 0 40 0 40 486 0 485 0 -3 -37z
m0 -205 l3 -38 -485 0 -486 0 0 40 0 40 483 -2 482 -3 3 -37z m-154 -615 c-13
-31 -16 -102 -6 -133 l11 -30 -470 0 -469 0 0 90 0 90 471 0 c445 0 471 -1
463 -17z"/>
<path d="M1978 2883 c-16 -4 -18 -20 -18 -150 l0 -145 103 4 c81 3 111 9 145
26 55 29 82 73 82 134 0 39 -6 54 -31 82 -17 20 -47 40 -67 46 -36 10 -180 12
-214 3z"/>
<path d="M1960 2201 l0 -181 108 0 c98 0 113 3 163 28 67 34 92 73 92 147 0
117 -82 175 -259 183 l-104 5 0 -182z"/>
</g>
</svg>
